<!-- by TradingView --><svg width="18" height="18" viewBox="0 0 18 18" xmlns="http://www.w3.org/2000/svg"><path fill="#F0F3FA" d="M0 0h18v18H0z"/><path d="M7.66 10.43a21.65 21.65 0 0 1-.32.31c-.3.32-.65.59-1.05.81-.33.19-.65.34-.97.45H4.9c.49-.1.9-.33 1.24-.67.24-.25.46-.59.64-1a21 21 0 0 0 .4-1.02c.18-.46.36-.84.54-1.13a2.97 2.97 0 0 1 .84-.91h-.01c-.3-.02-.58.03-.86.14-.45.18-.84.46-1.15.84-.3.36-.5.8-.64 1.3l-.11.46c-.1.46-.3.86-.55 1.2a1.88 1.88 0 0 1-1.09.76V12H4C4 12 4 12 4 12L8.93 4h.02L14 11.8h-.67L9.97 6.76l-2.31 3.67Z" fill="#001E98"/><path d="M4.54 11.89c.43-.23.75-.56.99-.99.16-.29.27-.59.35-.9.06-.23.1-.38.1-.45a3.35 3.35 0 0 1 .8-1.44 2.44 2.44 0 0 1 1.45-.75c-.19.18-.35.36-.46.52-.2.27-.35.56-.49.87-.14.32-.27.66-.4 1.02-.14.38-.31.72-.5 1.04-.26.4-.6.7-1.04.89a2.83 2.83 0 0 1-.8.19Z" fill="#F16800"/><path d="M4.77 12.22c.6-.18 1.14-.4 1.63-.69.37-.21.68-.45.93-.7a4.2 4.2 0 0 1 1.15-.9 3.03 3.03 0 0 1 1.86-.28l-.84.4c-.62.3-1.2.7-1.72 1.16-.14.13-.32.27-.53.4a3.66 3.66 0 0 1-2.4.63.54.54 0 0 1-.08-.01Z" fill="#0A7213"/><path d="M4.18 12.34c.28.11.58.18.88.2a4.49 4.49 0 0 0 2.03-.28c.31-.11.55-.2.72-.24a5.1 5.1 0 0 1 2.4-.15 1.96 1.96 0 0 1 1.05.52l-.29-.03c-.44-.04-.85-.05-1.25-.04a7.82 7.82 0 0 0-1.88.3c-.74.28-1.42.41-2.06.37a2.53 2.53 0 0 1-1.6-.65Z" fill="#081487"/></svg>