<!-- by TradingView --><svg width="18" height="18" viewBox="0 0 18 18" xmlns="http://www.w3.org/2000/svg"><path fill="#F0F3FA" d="M0 0h18v18H0z"/><path d="M10.95 12.5a.65.65 0 0 1 .1-.17.23.23 0 0 1 .1-.05.5.5 0 0 0 .32-.28.31.31 0 0 1 .09-.11c.25-.22.39-.34.4-.38l.3-.44c.12-.15.21-.3.27-.43.3-.68.46-1.09.48-1.2.04-.18.04-.8.01-1.84 0-.32-.06-.58-.15-.77l-.32-.74c-.05-.13-.15-.29-.3-.49-.1-.13-.17-.24-.21-.32-.06-.1-.14-.2-.26-.31-.34-.33-.68-.63-1.02-.89-.02-.01-.02-.03 0-.05l.03-.03.7.42c.3.18.53.33.68.47.45.41.85.9 1.19 1.47.11.2.2.4.27.6l.19.6a4.12 4.12 0 0 1-.13 2.77c-.1.2-.15.37-.17.47-.02.09-.07.2-.16.35-.34.55-.7 1-1.08 1.36-.16.16-.36.3-.57.44l-.62.38c-.15.1-.29.15-.42.17a.6.6 0 0 0-.28.14.8.8 0 0 1-.28.1l-.97.18c-.57.09-1 .1-1.29.04l-.84-.16c-.25-.03-.49-.1-.72-.2a10.17 10.17 0 0 0-.73-.32v-.05c0-.02.01-.02.02-.02l.4.15c.13.04.26.07.4.09.7.08 1.43.08 2.19 0 .2-.02.4-.06.6-.14l.6-.2a.52.52 0 0 0 .23-.1c.12-.09.21-.14.3-.15.13-.02.23-.1.31-.22a.14.14 0 0 1 .13-.08h.1c.05 0 .09-.02.1-.06Z" fill="#F36E20"/><path d="M8.8 12.43c.1-.1.29-.17.55-.22a.2.2 0 0 0 .12-.07c.13-.15.27-.26.43-.32a.19.19 0 0 0 .1-.1.65.65 0 0 1 .2-.18l.18-.16c.47-.54.78-1.08.94-1.61.19-.65.21-1.29.06-1.93a4.73 4.73 0 0 0-.76-1.54 5.03 5.03 0 0 0-1.55-1.21.98.98 0 0 0-.39-.17c-.06 0-.23-.04-.5-.12a6.17 6.17 0 0 0-1.21-.2 5.36 5.36 0 0 1 2.5.16 4.63 4.63 0 0 1 2.42 2.2c.1.2.17.43.2.67 0 .13.03.29.07.48a5.24 5.24 0 0 1-.22 1.88 5.8 5.8 0 0 1-.97 1.38c-.05.05-.13.1-.24.18-.12.09-.21.16-.26.22a.2.2 0 0 1-.11.07.8.8 0 0 0-.3.18.76.76 0 0 1-.18.11c-.47.2-.81.32-1.04.38-.03.01-.04 0-.06-.02l.01-.06Z" fill="#F36E20"/><path d="M6.62 4.64c.05-.02.1-.03.16-.03.02 0 .03 0 .03.02l-.01.04c-.06.04-.12.04-.18 0-.03 0-.03-.02 0-.03Z" fill="#FBB77A"/><path d="M5 7.2a3.81 3.81 0 0 0-.92 1.69c-.04.16-.07.16-.08 0-.02-.31.08-.7.3-1.18l.11-.25c.07-.16.17-.3.3-.45l.37-.4a.22.22 0 0 1 .11-.08.55.55 0 0 0 .3-.22.17.17 0 0 1 .12-.07c.09-.02.2-.07.35-.15.14-.08.27-.13.36-.14a4.47 4.47 0 0 1 2.07.04c.38.12.79.37 1.23.73.17.15.33.34.47.57.21.36.33.58.36.66a5.44 5.44 0 0 1 .1 1.03h-.02v-.2c0-.09-.02-.15-.04-.18a8.66 8.66 0 0 0-.58-1.06 3.53 3.53 0 0 0-2.53-1.19c-.23 0-.45.02-.66.07l-.43.09c-.13.01-.27.06-.42.15-.51.29-.8.47-.87.55Z" fill="#F36E20"/><path d="M8.96 7.86c-.04.7-.1 1.16-.17 1.34-.46 1.13-1.3 1.64-2.5 1.51-.3-.03-.65-.12-1.05-.28a2 2 0 0 1-.22-1.6c.34.91.92 1.34 1.75 1.27.38-.04.7-.16.95-.37.25-.22.41-.52.48-.9.08-.48-.03-.84-.33-1.1a2.4 2.4 0 0 0-1.12-.48 2.44 2.44 0 0 1 2.2.6Z" fill="#F04E27"/><path d="M6.75 7.25c.52.1.9.26 1.12.47.3.27.4.63.33 1.1-.07.39-.23.69-.48.91-.25.21-.57.33-.95.37-.83.07-1.41-.36-1.75-1.27.08-.26.2-.5.37-.73.02.44.08.77.19.99a1 1 0 0 0 .8.56c.39.05.72-.04 1-.27a1 1 0 0 0 0-1.54.95.95 0 0 0-.57-.2c-.3-.02-.62-.02-.95 0 .27-.19.56-.32.89-.39Z" fill="#F36E20"/><path d="M5.39 8.1c.13-.17.29-.32.47-.46.33-.02.64-.02.95 0a.95.95 0 0 1 .88.66 1 1 0 0 1-.32 1.08c-.27.23-.6.32-.98.27a1 1 0 0 1-.81-.56 2.6 2.6 0 0 1-.2-.99Z" fill="#F58639"/><path d="M5.24 10.43c.4.16.75.25 1.05.28 1.2.13 2.04-.38 2.5-1.5.07-.2.13-.64.17-1.35.21.2.37.44.49.71.23.54.23 1.09 0 1.63a2.35 2.35 0 0 1-1.72 1.33 2.44 2.44 0 0 1-1.62-.26c-.37-.2-.66-.48-.87-.84Z" fill="#EE1D22"/><path d="M6.24 8.92c-.12-.01-.18-.08-.16-.2l.02-.21a.43.43 0 0 1 .17-.31c.1-.08.22-.11.35-.1h.03c.13.02.23.08.31.18.09.1.12.22.1.34l-.02.2c-.01.13-.08.19-.2.17l-.6-.07Z" fill="#FBB77A"/></svg>