<!-- by TradingView --><svg width="18" height="18" viewBox="0 0 18 18" xmlns="http://www.w3.org/2000/svg"><path fill="#F0F3FA" d="M0 0h18v18H0z"/><path d="M6 8.5v1.18L6 9.7h-1.2v.01l.56 1.3c0 .01 0 .02.02.02l.02.01 1.31-.1.05.01.03.03.48.98a.02.02 0 0 1 0 .02l-.02.01H4.48a.06.06 0 0 1-.02-.04L3 9a.08.08 0 0 1 0-.07l1.54-2.9.03-.02L4.6 6h2.55l.01.02.01.01v.02L6.8 7.07l-.01.02H5.4l-.03.01-.02.02-.7 1.3a.02.02 0 0 0 0 .02l.02.01h1.28c.04 0 .05.04.05.04Z" fill="#312F55"/><path d="M6 8.39c0-.02-.03-.03-.08-.04l.78-1.1.03-.03a.1.1 0 0 1 .05-.01h.31l.04-.01c.02-.01.03-.02.03-.04l.44-1.13s0-.02.02-.02L7.65 6H9.75l.01.01a.03.03 0 0 1 0 .03l-.38 1c-.02.06-.07.05-.13.05H8l-.03.03a.06.06 0 0 0-.02.02l-.88 1.28a.02.02 0 0 0 0 .02v.01h1.62c.03 0 .02.02.02.03v1.18H7.18v.01h-.01a.02.02 0 0 0 0 .03l.76 1.33.03.04h.05l1.43-.1a.07.07 0 0 1 .07.03l.44.96a.03.03 0 0 1 0 .03H7.82a.1.1 0 0 1-.05 0 .1.1 0 0 1-.04-.04l-.5-1.03a.07.07 0 0 0-.03-.04.08.08 0 0 0-.04 0h-.44l-.04-.02a.07.07 0 0 1-.03-.03l-.68-1.01a.04.04 0 0 1 0-.04L6 9.77H6c.19 0 .29-.07.3-.25v-.9c0-.16-.1-.24-.3-.23Z" fill="#D53439"/><path d="m10.62 11.86-.01.05a.08.08 0 0 1-.1.02.08.08 0 0 1-.04-.04l-.52-.94a.08.08 0 0 0-.03-.03.08.08 0 0 0-.04-.01h-.21c-.02 0-.04 0-.05-.02a.06.06 0 0 1-.02-.05v-3.7h.01a.03.03 0 0 1 .03 0c.04.02.1.02.18 0 .01 0 .03 0 .04-.02l.02-.03.41-1.06.02-.02.03-.01h1.5l.04.01c.02.01.03.02.03.04L12.87 8a.02.02 0 0 1 0 .01l-1.03 2.04-.02.02a.06.06 0 0 1-.04.01h-1.1l-.04.01a.05.05 0 0 0-.02.04v1.72Zm.59-4.84H10.64V9.16h.53l.53-.76v-.88l-.5-.5Z" fill="#312F55"/><path d="M13.2 6v5.17l.02.01h1.71c.02 0 .04 0 .05.02l.02.03v.72l-.01.04H12.3l-.01-.01v-2c0-.03 0-.06.02-.08l.83-1.8a.3.3 0 0 0 0-.28l-.82-1.77a.04.04 0 0 1 0-.03V6h.86Z" fill="#312F55"/></svg>