<!-- by TradingView --><svg width="18" height="18" viewBox="0 0 18 18" xmlns="http://www.w3.org/2000/svg"><path fill="#F0F3FA" d="M0 0h18v18H0z"/><path d="M4.8 10.85c1.05-1.04 2.88-.87 3.13-.78l-3.87 3.87c-.13-.7-.11-2.23.75-3.09Z" fill="#369168"/><path d="M7.15 13.2c1.04-1.05.87-2.88.78-3.13l-3.87 3.87c.7.13 2.23.11 3.09-.75Z" fill="#48A458"/><path d="M5.07 11.11a4.03 4.03 0 0 0-1 2.85c.56 0 1.94-.15 2.82-1.03a4.2 4.2 0 0 0 1.05-2.85 3.94 3.94 0 0 0-2.87 1.03Z" fill="#0C7183"/><path d="M13.15 7.19c1.05-1.05.87-2.87.78-3.13l-3.87 3.89c.71.12 2.24.1 3.1-.76Z" fill="#369168"/><path d="M10.8 4.86c1.04-1.05 2.87-.88 3.13-.8l-3.87 3.89c-.13-.7-.12-2.23.74-3.09Z" fill="#48A458"/><path d="M12.9 6.93a4.05 4.05 0 0 1-2.86 1 4.2 4.2 0 0 1 1.02-2.81 4.21 4.21 0 0 1 2.86-1.07c.06.13.05 1.8-1.03 2.88Z" fill="#0C7183"/><path d="M4.8 7.15c1.05 1.04 2.88.87 3.13.78L4.06 4.06c-.13.7-.11 2.23.75 3.09Z" fill="#369168"/><path d="M7.15 4.8c1.04 1.05.87 2.88.78 3.13L4.06 4.06c.7-.13 2.23-.11 3.09.75Z" fill="#48A458"/><path d="M5.07 6.89a4.03 4.03 0 0 1-1-2.85c.56 0 1.94.15 2.82 1.03a4.2 4.2 0 0 1 1.05 2.85c-.12.06-1.8.05-2.87-1.03Z" fill="#0C7183"/><path d="M13 13h-.6v-1.86l-.9.76-.9-.76V13H10v-3l1.5 1.14L13 10v3Z" fill="#0B5377"/></svg>