<!-- by TradingView --><svg width="18" height="18" viewBox="0 0 18 18" xmlns="http://www.w3.org/2000/svg"><path fill="#F0F3FA" d="M0 0h18v18H0z"/><path d="m8.26 10.4-.19.69a.32.32 0 0 0 .04.27l.1.1a.4.4 0 0 0 .15.05h.03a.37.37 0 0 0 .27-.04.33.33 0 0 0 .1-.1.3.3 0 0 0 .04-.12l.24-1.48c.03-.21-.08-.32-.34-.32H6.02c-.43 0-.5-.3-.42-.67a8823.33 8823.33 0 0 0 .83-3.36C6.6 5.05 7 5 7.43 5h4.7c.15 0 .32.04.5.1.41.16.4.47.33.85a47.65 47.65 0 0 1-.4 1.71H9.6l-.02-.01-.01-.02V7.6l.2-.99a.24.24 0 0 0-.06-.21.28.28 0 0 0-.1-.07.3.3 0 0 0-.12-.03h-.05a.4.4 0 0 0-.24.08.34.34 0 0 0-.13.2l-.21 1.1c-.06.34-.01.6.4.62h1.7c1 0 1.25.58 1.08 1.37l-.45 2.3c-.1.55-.3 1.01-1 1.01H6.55c-.72 0-1.46.07-1.55-.62-.01-.12.01-.35.08-.69a38.46 38.46 0 0 0 .25-1.34H8.2a.07.07 0 0 1 .05.02l.01.02v.02Z" fill="#001452"/></svg>